G04 #@! TF.GenerationSoftware,KiCad,Pcbnew,8.0.3*
G04 #@! TF.CreationDate,2024-06-29T19:10:51-04:00*
G04 #@! TF.ProjectId,SDGeckoLED,53444765-636b-46f4-9c45-442e6b696361,rev?*
G04 #@! TF.SameCoordinates,Original*
G04 #@! TF.FileFunction,Legend,Top*
G04 #@! TF.FilePolarity,Positive*
%FSLAX46Y46*%
G04 Gerber Fmt 4.6, Leading zero omitted, Abs format (unit mm)*
G04 Created by KiCad (PCBNEW 8.0.3) date 2024-06-29 19:10:51*
%MOMM*%
%LPD*%
G01*
G04 APERTURE LIST*
G04 Aperture macros list*
%AMRoundRect*
0 Rectangle with rounded corners*
0 $1 Rounding radius*
0 $2 $3 $4 $5 $6 $7 $8 $9 X,Y pos of 4 corners*
0 Add a 4 corners polygon primitive as box body*
4,1,4,$2,$3,$4,$5,$6,$7,$8,$9,$2,$3,0*
0 Add four circle primitives for the rounded corners*
1,1,$1+$1,$2,$3*
1,1,$1+$1,$4,$5*
1,1,$1+$1,$6,$7*
1,1,$1+$1,$8,$9*
0 Add four rect primitives between the rounded corners*
20,1,$1+$1,$2,$3,$4,$5,0*
20,1,$1+$1,$4,$5,$6,$7,0*
20,1,$1+$1,$6,$7,$8,$9,0*
20,1,$1+$1,$8,$9,$2,$3,0*%
G04 Aperture macros list end*
%ADD10C,0.200000*%
%ADD11C,0.150000*%
%ADD12C,0.254000*%
%ADD13C,0.120000*%
%ADD14C,0.100000*%
%ADD15RoundRect,0.155000X0.212500X0.155000X-0.212500X0.155000X-0.212500X-0.155000X0.212500X-0.155000X0*%
%ADD16RoundRect,0.160000X-0.160000X0.222500X-0.160000X-0.222500X0.160000X-0.222500X0.160000X0.222500X0*%
%ADD17RoundRect,0.160000X0.160000X-0.197500X0.160000X0.197500X-0.160000X0.197500X-0.160000X-0.197500X0*%
%ADD18RoundRect,0.160000X-0.160000X0.197500X-0.160000X-0.197500X0.160000X-0.197500X0.160000X0.197500X0*%
%ADD19RoundRect,0.150000X0.150000X-0.650000X0.150000X0.650000X-0.150000X0.650000X-0.150000X-0.650000X0*%
%ADD20C,1.000000*%
%ADD21R,0.700000X1.600000*%
%ADD22R,1.200000X1.400000*%
%ADD23R,1.600000X1.400000*%
%ADD24R,1.200000X2.200000*%
%ADD25RoundRect,0.076200X-0.593701X-1.885878X0.593701X-1.885878X0.593701X1.885878X-0.593701X1.885878X0*%
%ADD26RoundRect,0.076200X-0.593701X-2.339885X0.593701X-2.339885X0.593701X2.339885X-0.593701X2.339885X0*%
%ADD27RoundRect,0.076200X-0.593701X-2.095420X0.593701X-2.095420X0.593701X2.095420X-0.593701X2.095420X0*%
%ADD28RoundRect,0.076200X-0.593701X-1.571565X0.593701X-1.571565X0.593701X1.571565X-0.593701X1.571565X0*%
G04 APERTURE END LIST*
D10*
X141362890Y-103195660D02*
X141439080Y-102967088D01*
X141439080Y-102967088D02*
X141439080Y-102586136D01*
X141439080Y-102586136D02*
X141362890Y-102433755D01*
X141362890Y-102433755D02*
X141286699Y-102357564D01*
X141286699Y-102357564D02*
X141134318Y-102281374D01*
X141134318Y-102281374D02*
X140981937Y-102281374D01*
X140981937Y-102281374D02*
X140829556Y-102357564D01*
X140829556Y-102357564D02*
X140753366Y-102433755D01*
X140753366Y-102433755D02*
X140677175Y-102586136D01*
X140677175Y-102586136D02*
X140600985Y-102890898D01*
X140600985Y-102890898D02*
X140524794Y-103043279D01*
X140524794Y-103043279D02*
X140448604Y-103119469D01*
X140448604Y-103119469D02*
X140296223Y-103195660D01*
X140296223Y-103195660D02*
X140143842Y-103195660D01*
X140143842Y-103195660D02*
X139991461Y-103119469D01*
X139991461Y-103119469D02*
X139915270Y-103043279D01*
X139915270Y-103043279D02*
X139839080Y-102890898D01*
X139839080Y-102890898D02*
X139839080Y-102509945D01*
X139839080Y-102509945D02*
X139915270Y-102281374D01*
X141439080Y-101595659D02*
X139839080Y-101595659D01*
X139839080Y-101595659D02*
X139839080Y-101214707D01*
X139839080Y-101214707D02*
X139915270Y-100986135D01*
X139915270Y-100986135D02*
X140067651Y-100833754D01*
X140067651Y-100833754D02*
X140220032Y-100757564D01*
X140220032Y-100757564D02*
X140524794Y-100681373D01*
X140524794Y-100681373D02*
X140753366Y-100681373D01*
X140753366Y-100681373D02*
X141058128Y-100757564D01*
X141058128Y-100757564D02*
X141210509Y-100833754D01*
X141210509Y-100833754D02*
X141362890Y-100986135D01*
X141362890Y-100986135D02*
X141439080Y-101214707D01*
X141439080Y-101214707D02*
X141439080Y-101595659D01*
X139915270Y-97938516D02*
X139839080Y-98090897D01*
X139839080Y-98090897D02*
X139839080Y-98319468D01*
X139839080Y-98319468D02*
X139915270Y-98548040D01*
X139915270Y-98548040D02*
X140067651Y-98700421D01*
X140067651Y-98700421D02*
X140220032Y-98776611D01*
X140220032Y-98776611D02*
X140524794Y-98852802D01*
X140524794Y-98852802D02*
X140753366Y-98852802D01*
X140753366Y-98852802D02*
X141058128Y-98776611D01*
X141058128Y-98776611D02*
X141210509Y-98700421D01*
X141210509Y-98700421D02*
X141362890Y-98548040D01*
X141362890Y-98548040D02*
X141439080Y-98319468D01*
X141439080Y-98319468D02*
X141439080Y-98167087D01*
X141439080Y-98167087D02*
X141362890Y-97938516D01*
X141362890Y-97938516D02*
X141286699Y-97862325D01*
X141286699Y-97862325D02*
X140753366Y-97862325D01*
X140753366Y-97862325D02*
X140753366Y-98167087D01*
X141362890Y-96567087D02*
X141439080Y-96719468D01*
X141439080Y-96719468D02*
X141439080Y-97024230D01*
X141439080Y-97024230D02*
X141362890Y-97176611D01*
X141362890Y-97176611D02*
X141210509Y-97252802D01*
X141210509Y-97252802D02*
X140600985Y-97252802D01*
X140600985Y-97252802D02*
X140448604Y-97176611D01*
X140448604Y-97176611D02*
X140372413Y-97024230D01*
X140372413Y-97024230D02*
X140372413Y-96719468D01*
X140372413Y-96719468D02*
X140448604Y-96567087D01*
X140448604Y-96567087D02*
X140600985Y-96490897D01*
X140600985Y-96490897D02*
X140753366Y-96490897D01*
X140753366Y-96490897D02*
X140905747Y-97252802D01*
X141362890Y-95119468D02*
X141439080Y-95271849D01*
X141439080Y-95271849D02*
X141439080Y-95576611D01*
X141439080Y-95576611D02*
X141362890Y-95728992D01*
X141362890Y-95728992D02*
X141286699Y-95805182D01*
X141286699Y-95805182D02*
X141134318Y-95881373D01*
X141134318Y-95881373D02*
X140677175Y-95881373D01*
X140677175Y-95881373D02*
X140524794Y-95805182D01*
X140524794Y-95805182D02*
X140448604Y-95728992D01*
X140448604Y-95728992D02*
X140372413Y-95576611D01*
X140372413Y-95576611D02*
X140372413Y-95271849D01*
X140372413Y-95271849D02*
X140448604Y-95119468D01*
X141439080Y-94433753D02*
X139839080Y-94433753D01*
X140829556Y-94281372D02*
X141439080Y-93824229D01*
X140372413Y-93824229D02*
X140981937Y-94433753D01*
X141439080Y-92909944D02*
X141362890Y-93062325D01*
X141362890Y-93062325D02*
X141286699Y-93138515D01*
X141286699Y-93138515D02*
X141134318Y-93214706D01*
X141134318Y-93214706D02*
X140677175Y-93214706D01*
X140677175Y-93214706D02*
X140524794Y-93138515D01*
X140524794Y-93138515D02*
X140448604Y-93062325D01*
X140448604Y-93062325D02*
X140372413Y-92909944D01*
X140372413Y-92909944D02*
X140372413Y-92681372D01*
X140372413Y-92681372D02*
X140448604Y-92528991D01*
X140448604Y-92528991D02*
X140524794Y-92452801D01*
X140524794Y-92452801D02*
X140677175Y-92376610D01*
X140677175Y-92376610D02*
X141134318Y-92376610D01*
X141134318Y-92376610D02*
X141286699Y-92452801D01*
X141286699Y-92452801D02*
X141362890Y-92528991D01*
X141362890Y-92528991D02*
X141439080Y-92681372D01*
X141439080Y-92681372D02*
X141439080Y-92909944D01*
X140829556Y-91690896D02*
X140829556Y-90471849D01*
X141439080Y-91081372D02*
X140220032Y-91081372D01*
X142567371Y-103195660D02*
X142491180Y-103119469D01*
X142491180Y-103119469D02*
X142414990Y-102967088D01*
X142414990Y-102967088D02*
X142414990Y-102586136D01*
X142414990Y-102586136D02*
X142491180Y-102433755D01*
X142491180Y-102433755D02*
X142567371Y-102357564D01*
X142567371Y-102357564D02*
X142719752Y-102281374D01*
X142719752Y-102281374D02*
X142872133Y-102281374D01*
X142872133Y-102281374D02*
X143100704Y-102357564D01*
X143100704Y-102357564D02*
X144014990Y-103271850D01*
X144014990Y-103271850D02*
X144014990Y-102281374D01*
X143862609Y-101595659D02*
X143938800Y-101519469D01*
X143938800Y-101519469D02*
X144014990Y-101595659D01*
X144014990Y-101595659D02*
X143938800Y-101671850D01*
X143938800Y-101671850D02*
X143862609Y-101595659D01*
X143862609Y-101595659D02*
X144014990Y-101595659D01*
X142414990Y-100528992D02*
X142414990Y-100376611D01*
X142414990Y-100376611D02*
X142491180Y-100224230D01*
X142491180Y-100224230D02*
X142567371Y-100148040D01*
X142567371Y-100148040D02*
X142719752Y-100071849D01*
X142719752Y-100071849D02*
X143024514Y-99995659D01*
X143024514Y-99995659D02*
X143405466Y-99995659D01*
X143405466Y-99995659D02*
X143710228Y-100071849D01*
X143710228Y-100071849D02*
X143862609Y-100148040D01*
X143862609Y-100148040D02*
X143938800Y-100224230D01*
X143938800Y-100224230D02*
X144014990Y-100376611D01*
X144014990Y-100376611D02*
X144014990Y-100528992D01*
X144014990Y-100528992D02*
X143938800Y-100681373D01*
X143938800Y-100681373D02*
X143862609Y-100757564D01*
X143862609Y-100757564D02*
X143710228Y-100833754D01*
X143710228Y-100833754D02*
X143405466Y-100909945D01*
X143405466Y-100909945D02*
X143024514Y-100909945D01*
X143024514Y-100909945D02*
X142719752Y-100833754D01*
X142719752Y-100833754D02*
X142567371Y-100757564D01*
X142567371Y-100757564D02*
X142491180Y-100681373D01*
X142491180Y-100681373D02*
X142414990Y-100528992D01*
D11*
X130761465Y-107048583D02*
X130713846Y-107096203D01*
X130713846Y-107096203D02*
X130570989Y-107143822D01*
X130570989Y-107143822D02*
X130475751Y-107143822D01*
X130475751Y-107143822D02*
X130332894Y-107096203D01*
X130332894Y-107096203D02*
X130237656Y-107000964D01*
X130237656Y-107000964D02*
X130190037Y-106905726D01*
X130190037Y-106905726D02*
X130142418Y-106715250D01*
X130142418Y-106715250D02*
X130142418Y-106572393D01*
X130142418Y-106572393D02*
X130190037Y-106381917D01*
X130190037Y-106381917D02*
X130237656Y-106286679D01*
X130237656Y-106286679D02*
X130332894Y-106191441D01*
X130332894Y-106191441D02*
X130475751Y-106143822D01*
X130475751Y-106143822D02*
X130570989Y-106143822D01*
X130570989Y-106143822D02*
X130713846Y-106191441D01*
X130713846Y-106191441D02*
X130761465Y-106239060D01*
X131713846Y-107143822D02*
X131142418Y-107143822D01*
X131428132Y-107143822D02*
X131428132Y-106143822D01*
X131428132Y-106143822D02*
X131332894Y-106286679D01*
X131332894Y-106286679D02*
X131237656Y-106381917D01*
X131237656Y-106381917D02*
X131142418Y-106429536D01*
X117269419Y-94270294D02*
X116269419Y-94270294D01*
X116269419Y-94270294D02*
X116269419Y-94032199D01*
X116269419Y-94032199D02*
X116317038Y-93889342D01*
X116317038Y-93889342D02*
X116412276Y-93794104D01*
X116412276Y-93794104D02*
X116507514Y-93746485D01*
X116507514Y-93746485D02*
X116697990Y-93698866D01*
X116697990Y-93698866D02*
X116840847Y-93698866D01*
X116840847Y-93698866D02*
X117031323Y-93746485D01*
X117031323Y-93746485D02*
X117126561Y-93794104D01*
X117126561Y-93794104D02*
X117221800Y-93889342D01*
X117221800Y-93889342D02*
X117269419Y-94032199D01*
X117269419Y-94032199D02*
X117269419Y-94270294D01*
X117269419Y-92746485D02*
X117269419Y-93317913D01*
X117269419Y-93032199D02*
X116269419Y-93032199D01*
X116269419Y-93032199D02*
X116412276Y-93127437D01*
X116412276Y-93127437D02*
X116507514Y-93222675D01*
X116507514Y-93222675D02*
X116555133Y-93317913D01*
X143277419Y-91523866D02*
X142801228Y-91857199D01*
X143277419Y-92095294D02*
X142277419Y-92095294D01*
X142277419Y-92095294D02*
X142277419Y-91714342D01*
X142277419Y-91714342D02*
X142325038Y-91619104D01*
X142325038Y-91619104D02*
X142372657Y-91571485D01*
X142372657Y-91571485D02*
X142467895Y-91523866D01*
X142467895Y-91523866D02*
X142610752Y-91523866D01*
X142610752Y-91523866D02*
X142705990Y-91571485D01*
X142705990Y-91571485D02*
X142753609Y-91619104D01*
X142753609Y-91619104D02*
X142801228Y-91714342D01*
X142801228Y-91714342D02*
X142801228Y-92095294D01*
X142372657Y-91142913D02*
X142325038Y-91095294D01*
X142325038Y-91095294D02*
X142277419Y-91000056D01*
X142277419Y-91000056D02*
X142277419Y-90761961D01*
X142277419Y-90761961D02*
X142325038Y-90666723D01*
X142325038Y-90666723D02*
X142372657Y-90619104D01*
X142372657Y-90619104D02*
X142467895Y-90571485D01*
X142467895Y-90571485D02*
X142563133Y-90571485D01*
X142563133Y-90571485D02*
X142705990Y-90619104D01*
X142705990Y-90619104D02*
X143277419Y-91190532D01*
X143277419Y-91190532D02*
X143277419Y-90571485D01*
X119751945Y-91523866D02*
X119275754Y-91857199D01*
X119751945Y-92095294D02*
X118751945Y-92095294D01*
X118751945Y-92095294D02*
X118751945Y-91714342D01*
X118751945Y-91714342D02*
X118799564Y-91619104D01*
X118799564Y-91619104D02*
X118847183Y-91571485D01*
X118847183Y-91571485D02*
X118942421Y-91523866D01*
X118942421Y-91523866D02*
X119085278Y-91523866D01*
X119085278Y-91523866D02*
X119180516Y-91571485D01*
X119180516Y-91571485D02*
X119228135Y-91619104D01*
X119228135Y-91619104D02*
X119275754Y-91714342D01*
X119275754Y-91714342D02*
X119275754Y-92095294D01*
X119751945Y-90571485D02*
X119751945Y-91142913D01*
X119751945Y-90857199D02*
X118751945Y-90857199D01*
X118751945Y-90857199D02*
X118894802Y-90952437D01*
X118894802Y-90952437D02*
X118990040Y-91047675D01*
X118990040Y-91047675D02*
X119037659Y-91142913D01*
X145768219Y-94524294D02*
X144768219Y-94524294D01*
X144768219Y-94524294D02*
X144768219Y-94286199D01*
X144768219Y-94286199D02*
X144815838Y-94143342D01*
X144815838Y-94143342D02*
X144911076Y-94048104D01*
X144911076Y-94048104D02*
X145006314Y-94000485D01*
X145006314Y-94000485D02*
X145196790Y-93952866D01*
X145196790Y-93952866D02*
X145339647Y-93952866D01*
X145339647Y-93952866D02*
X145530123Y-94000485D01*
X145530123Y-94000485D02*
X145625361Y-94048104D01*
X145625361Y-94048104D02*
X145720600Y-94143342D01*
X145720600Y-94143342D02*
X145768219Y-94286199D01*
X145768219Y-94286199D02*
X145768219Y-94524294D01*
X144863457Y-93571913D02*
X144815838Y-93524294D01*
X144815838Y-93524294D02*
X144768219Y-93429056D01*
X144768219Y-93429056D02*
X144768219Y-93190961D01*
X144768219Y-93190961D02*
X144815838Y-93095723D01*
X144815838Y-93095723D02*
X144863457Y-93048104D01*
X144863457Y-93048104D02*
X144958695Y-93000485D01*
X144958695Y-93000485D02*
X145053933Y-93000485D01*
X145053933Y-93000485D02*
X145196790Y-93048104D01*
X145196790Y-93048104D02*
X145768219Y-93619532D01*
X145768219Y-93619532D02*
X145768219Y-93000485D01*
X117462119Y-102107904D02*
X118271642Y-102107904D01*
X118271642Y-102107904D02*
X118366880Y-102060285D01*
X118366880Y-102060285D02*
X118414500Y-102012666D01*
X118414500Y-102012666D02*
X118462119Y-101917428D01*
X118462119Y-101917428D02*
X118462119Y-101726952D01*
X118462119Y-101726952D02*
X118414500Y-101631714D01*
X118414500Y-101631714D02*
X118366880Y-101584095D01*
X118366880Y-101584095D02*
X118271642Y-101536476D01*
X118271642Y-101536476D02*
X117462119Y-101536476D01*
X118462119Y-100536476D02*
X118462119Y-101107904D01*
X118462119Y-100822190D02*
X117462119Y-100822190D01*
X117462119Y-100822190D02*
X117604976Y-100917428D01*
X117604976Y-100917428D02*
X117700214Y-101012666D01*
X117700214Y-101012666D02*
X117747833Y-101107904D01*
D12*
X129929467Y-94630518D02*
X129929467Y-95537661D01*
X129929467Y-95537661D02*
X129868990Y-95719089D01*
X129868990Y-95719089D02*
X129748038Y-95840042D01*
X129748038Y-95840042D02*
X129566609Y-95900518D01*
X129566609Y-95900518D02*
X129445657Y-95900518D01*
X131078514Y-95053851D02*
X131078514Y-95900518D01*
X130776133Y-94570042D02*
X130473752Y-95477184D01*
X130473752Y-95477184D02*
X131259943Y-95477184D01*
D11*
X123020667Y-104973726D02*
X123020667Y-105880869D01*
X123020667Y-105880869D02*
X122960190Y-106062297D01*
X122960190Y-106062297D02*
X122839238Y-106183250D01*
X122839238Y-106183250D02*
X122657809Y-106243726D01*
X122657809Y-106243726D02*
X122536857Y-106243726D01*
X123564952Y-105094678D02*
X123625428Y-105034202D01*
X123625428Y-105034202D02*
X123746381Y-104973726D01*
X123746381Y-104973726D02*
X124048762Y-104973726D01*
X124048762Y-104973726D02*
X124169714Y-105034202D01*
X124169714Y-105034202D02*
X124230190Y-105094678D01*
X124230190Y-105094678D02*
X124290667Y-105215630D01*
X124290667Y-105215630D02*
X124290667Y-105336583D01*
X124290667Y-105336583D02*
X124230190Y-105518011D01*
X124230190Y-105518011D02*
X123504476Y-106243726D01*
X123504476Y-106243726D02*
X124290667Y-106243726D01*
D13*
X131052835Y-104838800D02*
X130821165Y-104838800D01*
X131052835Y-105558800D02*
X130821165Y-105558800D01*
D14*
X116788400Y-90092200D02*
G75*
G02*
X116688400Y-90092200I-50000J0D01*
G01*
X116688400Y-90092200D02*
G75*
G02*
X116788400Y-90092200I50000J0D01*
G01*
D13*
X143612600Y-91524821D02*
X143612600Y-91189579D01*
X144372600Y-91524821D02*
X144372600Y-91189579D01*
X117501400Y-91189579D02*
X117501400Y-91524821D01*
X118261400Y-91189579D02*
X118261400Y-91524821D01*
D14*
X145312600Y-90092200D02*
G75*
G02*
X145212600Y-90092200I-50000J0D01*
G01*
X145212600Y-90092200D02*
G75*
G02*
X145312600Y-90092200I50000J0D01*
G01*
D13*
X118847300Y-101346000D02*
X118847300Y-100571000D01*
X118847300Y-101346000D02*
X118847300Y-102121000D01*
X121967300Y-101346000D02*
X121967300Y-100571000D01*
X121967300Y-101346000D02*
X121967300Y-102121000D01*
X118897300Y-102708500D02*
X118567300Y-102948500D01*
X118567300Y-102468500D01*
X118897300Y-102708500D01*
G36*
X118897300Y-102708500D02*
G01*
X118567300Y-102948500D01*
X118567300Y-102468500D01*
X118897300Y-102708500D01*
G37*
D10*
X123002800Y-87676200D02*
X123002800Y-90176200D01*
X123002800Y-100176200D02*
X123002800Y-93676200D01*
X127302800Y-102176200D02*
X124852800Y-102176200D01*
D14*
X128102800Y-103376200D02*
X128102800Y-103376200D01*
X128102800Y-103476200D02*
X128102800Y-103476200D01*
D10*
X137702800Y-87676200D02*
X123002800Y-87676200D01*
X137702800Y-90176200D02*
X137702800Y-87676200D01*
X137702800Y-100176200D02*
X137702800Y-93676200D01*
D14*
X128102800Y-103376200D02*
G75*
G02*
X128102800Y-103476200I0J-50000D01*
G01*
X128102800Y-103476200D02*
G75*
G02*
X128102800Y-103376200I0J50000D01*
G01*
%LPC*%
D15*
X131504500Y-105198800D03*
X130369500Y-105198800D03*
D16*
X116738400Y-90784700D03*
X116738400Y-91929700D03*
D17*
X143992600Y-91954700D03*
X143992600Y-90759700D03*
D18*
X117881400Y-90759700D03*
X117881400Y-91954700D03*
D16*
X145262600Y-90784700D03*
X145262600Y-91929700D03*
D19*
X119457300Y-102496000D03*
X120407300Y-102496000D03*
X121357300Y-102496000D03*
X121357300Y-100196000D03*
X119457300Y-100196000D03*
D20*
X135302800Y-91676200D03*
X127302800Y-91676200D03*
D21*
X128102800Y-102176200D03*
X129202800Y-102176200D03*
X130302800Y-102176200D03*
X131402800Y-102176200D03*
X132502800Y-102176200D03*
X133602800Y-102176200D03*
X134702800Y-102176200D03*
X135802800Y-102176200D03*
X136902800Y-102176200D03*
D22*
X138102800Y-101676200D03*
D23*
X123502800Y-101676200D03*
D24*
X122602800Y-92076200D03*
X138102800Y-92076200D03*
D25*
X138937262Y-112171015D03*
D26*
X137487262Y-116971015D03*
D27*
X135987262Y-112371015D03*
X134587262Y-116721015D03*
X133137262Y-112371015D03*
X131687262Y-116721015D03*
X130187262Y-112371015D03*
X128787262Y-116721015D03*
X127337262Y-112371015D03*
D26*
X125887262Y-116921015D03*
D27*
X124387262Y-112371015D03*
D28*
X122987262Y-116171015D03*
%LPD*%
M02*
