M48
; DRILL file {KiCad 8.0.3} date 2024-06-29T19:11:06-0400
; FORMAT={-:-/ absolute / metric / decimal}
; #@! TF.CreationDate,2024-06-29T19:11:06-04:00
; #@! TF.GenerationSoftware,Kicad,Pcbnew,8.0.3
; #@! TF.FileFunction,Plated,1,2,PTH
FMAT,2
METRIC
; #@! TA.AperFunction,Plated,PTH,ViaDrill
T1C0.400
%
G90
G05
T1
X117.754Y-99.517
X117.78Y-102.362
X118.542Y-93.447
X119.457Y-102.496
X122.918Y-109.855
X123.012Y-106.629
X124.714Y-90.256
X125.451Y-96.037
X125.882Y-108.382
X125.908Y-104.496
X126.213Y-102.692
X127.178Y-99.771
X127.337Y-108.763
X128.803Y-108.306
X128.854Y-105.232
X128.956Y-90.23
X130.303Y-100.838
X131.623Y-108.788
X132.309Y-105.232
X132.664Y-90.281
X133.137Y-108.688
X134.569Y-108.661
X134.747Y-96.114
X135.966Y-90.23
X137.363Y-105.004
X138.927Y-109.851
X142.968Y-97.993
X144.12Y-93.574
X144.856Y-103.861
X144.882Y-99.67
M30
