G04 #@! TF.GenerationSoftware,KiCad,Pcbnew,8.0.3*
G04 #@! TF.CreationDate,2024-06-29T19:10:51-04:00*
G04 #@! TF.ProjectId,SDGeckoLED,53444765-636b-46f4-9c45-442e6b696361,rev?*
G04 #@! TF.SameCoordinates,Original*
G04 #@! TF.FileFunction,Copper,L1,Top*
G04 #@! TF.FilePolarity,Positive*
%FSLAX46Y46*%
G04 Gerber Fmt 4.6, Leading zero omitted, Abs format (unit mm)*
G04 Created by KiCad (PCBNEW 8.0.3) date 2024-06-29 19:10:51*
%MOMM*%
%LPD*%
G01*
G04 APERTURE LIST*
G04 Aperture macros list*
%AMRoundRect*
0 Rectangle with rounded corners*
0 $1 Rounding radius*
0 $2 $3 $4 $5 $6 $7 $8 $9 X,Y pos of 4 corners*
0 Add a 4 corners polygon primitive as box body*
4,1,4,$2,$3,$4,$5,$6,$7,$8,$9,$2,$3,0*
0 Add four circle primitives for the rounded corners*
1,1,$1+$1,$2,$3*
1,1,$1+$1,$4,$5*
1,1,$1+$1,$6,$7*
1,1,$1+$1,$8,$9*
0 Add four rect primitives between the rounded corners*
20,1,$1+$1,$2,$3,$4,$5,0*
20,1,$1+$1,$4,$5,$6,$7,0*
20,1,$1+$1,$6,$7,$8,$9,0*
20,1,$1+$1,$8,$9,$2,$3,0*%
G04 Aperture macros list end*
G04 #@! TA.AperFunction,SMDPad,CuDef*
%ADD10RoundRect,0.155000X0.212500X0.155000X-0.212500X0.155000X-0.212500X-0.155000X0.212500X-0.155000X0*%
G04 #@! TD*
G04 #@! TA.AperFunction,SMDPad,CuDef*
%ADD11RoundRect,0.160000X-0.160000X0.222500X-0.160000X-0.222500X0.160000X-0.222500X0.160000X0.222500X0*%
G04 #@! TD*
G04 #@! TA.AperFunction,SMDPad,CuDef*
%ADD12RoundRect,0.160000X0.160000X-0.197500X0.160000X0.197500X-0.160000X0.197500X-0.160000X-0.197500X0*%
G04 #@! TD*
G04 #@! TA.AperFunction,SMDPad,CuDef*
%ADD13RoundRect,0.160000X-0.160000X0.197500X-0.160000X-0.197500X0.160000X-0.197500X0.160000X0.197500X0*%
G04 #@! TD*
G04 #@! TA.AperFunction,SMDPad,CuDef*
%ADD14RoundRect,0.150000X0.150000X-0.650000X0.150000X0.650000X-0.150000X0.650000X-0.150000X-0.650000X0*%
G04 #@! TD*
G04 #@! TA.AperFunction,SMDPad,CuDef*
%ADD15R,0.700000X1.600000*%
G04 #@! TD*
G04 #@! TA.AperFunction,SMDPad,CuDef*
%ADD16R,1.200000X1.400000*%
G04 #@! TD*
G04 #@! TA.AperFunction,SMDPad,CuDef*
%ADD17R,1.600000X1.400000*%
G04 #@! TD*
G04 #@! TA.AperFunction,SMDPad,CuDef*
%ADD18R,1.200000X2.200000*%
G04 #@! TD*
G04 #@! TA.AperFunction,SMDPad,CuDef*
%ADD19R,1.187403X3.771756*%
G04 #@! TD*
G04 #@! TA.AperFunction,SMDPad,CuDef*
%ADD20R,1.187403X4.679771*%
G04 #@! TD*
G04 #@! TA.AperFunction,SMDPad,CuDef*
%ADD21R,1.187403X4.190840*%
G04 #@! TD*
G04 #@! TA.AperFunction,SMDPad,CuDef*
%ADD22R,1.187403X3.143131*%
G04 #@! TD*
G04 #@! TA.AperFunction,ViaPad*
%ADD23C,0.800000*%
G04 #@! TD*
G04 #@! TA.AperFunction,Conductor*
%ADD24C,0.250000*%
G04 #@! TD*
G04 APERTURE END LIST*
D10*
X131504500Y-105198800D03*
X130369500Y-105198800D03*
D11*
X116738400Y-90784700D03*
X116738400Y-91929700D03*
D12*
X143992600Y-91954700D03*
X143992600Y-90759700D03*
D13*
X117881400Y-90759700D03*
X117881400Y-91954700D03*
D11*
X145262600Y-90784700D03*
X145262600Y-91929700D03*
D14*
X119457300Y-102496000D03*
X120407300Y-102496000D03*
X121357300Y-102496000D03*
X121357300Y-100196000D03*
X119457300Y-100196000D03*
D15*
X128102800Y-102176200D03*
X129202800Y-102176200D03*
X130302800Y-102176200D03*
X131402800Y-102176200D03*
X132502800Y-102176200D03*
X133602800Y-102176200D03*
X134702800Y-102176200D03*
X135802800Y-102176200D03*
X136902800Y-102176200D03*
D16*
X138102800Y-101676200D03*
D17*
X123502800Y-101676200D03*
D18*
X122602800Y-92076200D03*
X138102800Y-92076200D03*
D19*
X138937262Y-112171015D03*
D20*
X137487262Y-116971015D03*
D21*
X135987262Y-112371015D03*
X134587262Y-116721015D03*
X133137262Y-112371015D03*
X131687262Y-116721015D03*
X130187262Y-112371015D03*
X128787262Y-116721015D03*
X127337262Y-112371015D03*
D20*
X125887262Y-116921015D03*
D21*
X124387262Y-112371015D03*
D22*
X122987262Y-116171015D03*
D23*
X119457300Y-102496000D03*
X133137262Y-108687971D03*
X127337262Y-108762800D03*
X125907800Y-104495600D03*
X125882400Y-108381800D03*
X118541800Y-93446600D03*
X144119600Y-93573600D03*
X125450600Y-96037400D03*
X137363200Y-105003600D03*
X144881600Y-99669600D03*
X128803400Y-108305600D03*
X132664200Y-90281000D03*
X117779800Y-102362000D03*
X128854200Y-105232200D03*
X134747000Y-96113600D03*
X126212600Y-102692200D03*
X117754400Y-99517200D03*
X124714000Y-90255600D03*
X128955800Y-90230200D03*
X127177800Y-99771200D03*
X135966200Y-90230200D03*
X144856200Y-103860600D03*
X131622800Y-108788200D03*
X123012200Y-106629200D03*
X138926581Y-109851280D03*
X122917794Y-109855376D03*
X134569331Y-108661200D03*
X132308600Y-105232200D03*
X142967697Y-97993200D03*
X130302800Y-100838000D03*
D24*
X117856400Y-90784700D02*
X117881400Y-90759700D01*
X116738400Y-90784700D02*
X117856400Y-90784700D01*
X134848600Y-102322000D02*
X134702800Y-102176200D01*
X116763800Y-96062800D02*
X116763800Y-91955100D01*
X134702800Y-102176200D02*
X134823200Y-102055800D01*
X132461000Y-97180400D02*
X117881400Y-97180400D01*
X130187262Y-112371015D02*
X130187262Y-108420338D01*
X117881400Y-97180400D02*
X116763800Y-96062800D01*
X130187262Y-108420338D02*
X131140200Y-107467400D01*
X131140200Y-107467400D02*
X133375400Y-107467400D01*
X134823200Y-102055800D02*
X134823200Y-99542600D01*
X116763800Y-91955100D02*
X116738400Y-91929700D01*
X134823200Y-99542600D02*
X132461000Y-97180400D01*
X134848600Y-105994200D02*
X134848600Y-102322000D01*
X133375400Y-107467400D02*
X134848600Y-105994200D01*
X133137262Y-108687971D02*
X133137262Y-112371015D01*
X120407300Y-103295999D02*
X120407300Y-102496000D01*
X127337262Y-108762800D02*
X127337262Y-112371015D01*
X125907800Y-104495600D02*
X125222000Y-103809800D01*
X125222000Y-103809800D02*
X120921101Y-103809800D01*
X120921101Y-103809800D02*
X120407300Y-103295999D01*
X132502800Y-102176200D02*
X132502800Y-103267400D01*
X124387262Y-107895738D02*
X124387262Y-112371015D01*
X133451600Y-104216200D02*
X133451600Y-105765600D01*
X132502800Y-103267400D02*
X133451600Y-104216200D01*
X125831600Y-106451400D02*
X124387262Y-107895738D01*
X132765800Y-106451400D02*
X125831600Y-106451400D01*
X133451600Y-105765600D02*
X132765800Y-106451400D01*
X123502800Y-101676200D02*
X123825000Y-101354000D01*
X133604000Y-102175000D02*
X133602800Y-102176200D01*
X138926581Y-109851280D02*
X138937262Y-109861961D01*
X122987262Y-116171015D02*
X122987262Y-109924844D01*
X122987262Y-109924844D02*
X122917794Y-109855376D01*
X138937262Y-109861961D02*
X138937262Y-112171015D01*
X145237600Y-90759700D02*
X145262600Y-90784700D01*
X144018000Y-90980100D02*
X143992600Y-90954700D01*
X143992600Y-90759700D02*
X145237600Y-90759700D01*
X131402800Y-105097100D02*
X131402800Y-102176200D01*
X131402800Y-102176200D02*
X131402800Y-100237000D01*
X134569331Y-109742807D02*
X134587262Y-109760738D01*
X131537900Y-105232200D02*
X131402800Y-105097100D01*
X134587262Y-109760738D02*
X134587262Y-116721015D01*
X129641600Y-98475800D02*
X120091200Y-98475800D01*
X134569331Y-108661200D02*
X134569331Y-109742807D01*
X132308600Y-105232200D02*
X131537900Y-105232200D01*
X120091200Y-98475800D02*
X119457300Y-99109700D01*
X119457300Y-99109700D02*
X119457300Y-100196000D01*
X131402800Y-100237000D02*
X129641600Y-98475800D01*
X130302800Y-100838000D02*
X125222000Y-100838000D01*
X124580000Y-100196000D02*
X121357300Y-100196000D01*
X145262600Y-95672495D02*
X145262600Y-91929700D01*
X125222000Y-100838000D02*
X124580000Y-100196000D01*
X142967697Y-97993200D02*
X142967697Y-97967398D01*
X130302800Y-100838000D02*
X130302800Y-102176200D01*
X142967697Y-97967398D02*
X145262600Y-95672495D01*
G04 #@! TA.AperFunction,Conductor*
G36*
X146035648Y-89288532D02*
G01*
X146050000Y-89323180D01*
X146050000Y-104726000D01*
X146035648Y-104760648D01*
X146001000Y-104775000D01*
X140251180Y-104775000D01*
X140251180Y-119765340D01*
X140236828Y-119799988D01*
X140202180Y-119814340D01*
X121900420Y-119814340D01*
X121865772Y-119799988D01*
X121851420Y-119765340D01*
X121851420Y-104775000D01*
X116099060Y-104775000D01*
X116064412Y-104760648D01*
X116050060Y-104726000D01*
X116050060Y-102496000D01*
X118851618Y-102496000D01*
X118872255Y-102652761D01*
X118932761Y-102798836D01*
X118932764Y-102798841D01*
X118946674Y-102816969D01*
X118956800Y-102846798D01*
X118956800Y-103179261D01*
X118963533Y-103225468D01*
X118966727Y-103247393D01*
X119018102Y-103352483D01*
X119100817Y-103435198D01*
X119205907Y-103486573D01*
X119254184Y-103493606D01*
X119274038Y-103496500D01*
X119274040Y-103496500D01*
X119640562Y-103496500D01*
X119657890Y-103493974D01*
X119708693Y-103486573D01*
X119813783Y-103435198D01*
X119896498Y-103352483D01*
X119896498Y-103352482D01*
X119897652Y-103351329D01*
X119932300Y-103336977D01*
X119966948Y-103351329D01*
X119968102Y-103352483D01*
X120050817Y-103435198D01*
X120121900Y-103469948D01*
X120122359Y-103470172D01*
X120143272Y-103489690D01*
X120146835Y-103495861D01*
X120660635Y-104009661D01*
X120660636Y-104009662D01*
X120721239Y-104070265D01*
X120748405Y-104085949D01*
X120795460Y-104113117D01*
X120795462Y-104113117D01*
X120795463Y-104113118D01*
X120860752Y-104130612D01*
X120878244Y-104135299D01*
X120878245Y-104135300D01*
X120878248Y-104135300D01*
X120963954Y-104135300D01*
X125066877Y-104135300D01*
X125101525Y-104149652D01*
X125301941Y-104350067D01*
X125316293Y-104384715D01*
X125315874Y-104391111D01*
X125302118Y-104495599D01*
X125322755Y-104652361D01*
X125383261Y-104798436D01*
X125383264Y-104798441D01*
X125479518Y-104923882D01*
X125604959Y-105020136D01*
X125604961Y-105020136D01*
X125604963Y-105020138D01*
X125738470Y-105075438D01*
X125751038Y-105080644D01*
X125907800Y-105101282D01*
X126064562Y-105080644D01*
X126210641Y-105020136D01*
X126336082Y-104923882D01*
X126432336Y-104798441D01*
X126492844Y-104652362D01*
X126513482Y-104495600D01*
X126492844Y-104338838D01*
X126432336Y-104192759D01*
X126336082Y-104067318D01*
X126269643Y-104016338D01*
X126210641Y-103971064D01*
X126210636Y-103971061D01*
X126064561Y-103910555D01*
X125928437Y-103892634D01*
X125907800Y-103889918D01*
X125907799Y-103889918D01*
X125803311Y-103903674D01*
X125767086Y-103893967D01*
X125762267Y-103889741D01*
X125421862Y-103549335D01*
X125347640Y-103506482D01*
X125347637Y-103506481D01*
X125264856Y-103484300D01*
X125264853Y-103484300D01*
X121076224Y-103484300D01*
X121041576Y-103469948D01*
X120896720Y-103325092D01*
X120882368Y-103290444D01*
X120887346Y-103268925D01*
X120897873Y-103247393D01*
X120907800Y-103179260D01*
X120907800Y-101812740D01*
X120897873Y-101744607D01*
X120846498Y-101639517D01*
X120763783Y-101556802D01*
X120711238Y-101531114D01*
X120658696Y-101505428D01*
X120658694Y-101505427D01*
X120590562Y-101495500D01*
X120590560Y-101495500D01*
X120224040Y-101495500D01*
X120224038Y-101495500D01*
X120155905Y-101505427D01*
X120155903Y-101505428D01*
X120050819Y-101556801D01*
X120050815Y-101556803D01*
X119966948Y-101640671D01*
X119932300Y-101655023D01*
X119897652Y-101640671D01*
X119813784Y-101556803D01*
X119813783Y-101556802D01*
X119761238Y-101531114D01*
X119708696Y-101505428D01*
X119708694Y-101505427D01*
X119640562Y-101495500D01*
X119640560Y-101495500D01*
X119274040Y-101495500D01*
X119274038Y-101495500D01*
X119205905Y-101505427D01*
X119205903Y-101505428D01*
X119100819Y-101556801D01*
X119100815Y-101556803D01*
X119018103Y-101639515D01*
X119018101Y-101639519D01*
X118966728Y-101744603D01*
X118966727Y-101744605D01*
X118956800Y-101812738D01*
X118956800Y-102145200D01*
X118946675Y-102175028D01*
X118932765Y-102193155D01*
X118932762Y-102193160D01*
X118872255Y-102339238D01*
X118851618Y-102496000D01*
X116050060Y-102496000D01*
X116050060Y-99512740D01*
X118956800Y-99512740D01*
X118956800Y-100879260D01*
X118966727Y-100947393D01*
X119018102Y-101052483D01*
X119100817Y-101135198D01*
X119205907Y-101186573D01*
X119254184Y-101193606D01*
X119274038Y-101196500D01*
X119274040Y-101196500D01*
X119640562Y-101196500D01*
X119657890Y-101193974D01*
X119708693Y-101186573D01*
X119813783Y-101135198D01*
X119896498Y-101052483D01*
X119947873Y-100947393D01*
X119957800Y-100879260D01*
X119957800Y-99512740D01*
X119955906Y-99499744D01*
X119954906Y-99492884D01*
X119947873Y-99444607D01*
X119896498Y-99339517D01*
X119826801Y-99269820D01*
X119812449Y-99235172D01*
X119826800Y-99200525D01*
X120211675Y-98815652D01*
X120246323Y-98801300D01*
X129486477Y-98801300D01*
X129521125Y-98815652D01*
X131062948Y-100357475D01*
X131077300Y-100392123D01*
X131077300Y-101126931D01*
X131062948Y-101161579D01*
X131035298Y-101174657D01*
X131035413Y-101175231D01*
X131033122Y-101175686D01*
X131033105Y-101175695D01*
X131033055Y-101175699D01*
X130974569Y-101187333D01*
X130908247Y-101231647D01*
X130893542Y-101253656D01*
X130862359Y-101274492D01*
X130825577Y-101267175D01*
X130812058Y-101253656D01*
X130798383Y-101233190D01*
X130791067Y-101196408D01*
X130800249Y-101176140D01*
X130827336Y-101140841D01*
X130887844Y-100994762D01*
X130908482Y-100838000D01*
X130887844Y-100681238D01*
X130827336Y-100535159D01*
X130731082Y-100409718D01*
X130681701Y-100371827D01*
X130605641Y-100313464D01*
X130605636Y-100313461D01*
X130459561Y-100252955D01*
X130302800Y-100232318D01*
X130146038Y-100252955D01*
X129999963Y-100313461D01*
X129999958Y-100313464D01*
X129874518Y-100409717D01*
X129874517Y-100409718D01*
X129810361Y-100493329D01*
X129777883Y-100512081D01*
X129771487Y-100512500D01*
X125377123Y-100512500D01*
X125342475Y-100498148D01*
X124779862Y-99935535D01*
X124705640Y-99892682D01*
X124705637Y-99892681D01*
X124622856Y-99870500D01*
X124622853Y-99870500D01*
X121906800Y-99870500D01*
X121872152Y-99856148D01*
X121857800Y-99821500D01*
X121857800Y-99512738D01*
X121854906Y-99492884D01*
X121847873Y-99444607D01*
X121796498Y-99339517D01*
X121713783Y-99256802D01*
X121661238Y-99231114D01*
X121608696Y-99205428D01*
X121608694Y-99205427D01*
X121540562Y-99195500D01*
X121540560Y-99195500D01*
X121174040Y-99195500D01*
X121174038Y-99195500D01*
X121105905Y-99205427D01*
X121105903Y-99205428D01*
X121000819Y-99256801D01*
X121000815Y-99256803D01*
X120918103Y-99339515D01*
X120918101Y-99339519D01*
X120866728Y-99444603D01*
X120866727Y-99444605D01*
X120858694Y-99499744D01*
X120856800Y-99512740D01*
X120856800Y-100879260D01*
X120866727Y-100947393D01*
X120918102Y-101052483D01*
X121000817Y-101135198D01*
X121105907Y-101186573D01*
X121154184Y-101193606D01*
X121174038Y-101196500D01*
X121174040Y-101196500D01*
X121540562Y-101196500D01*
X121557890Y-101193974D01*
X121608693Y-101186573D01*
X121713783Y-101135198D01*
X121796498Y-101052483D01*
X121847873Y-100947393D01*
X121857800Y-100879260D01*
X121857800Y-100570500D01*
X121872152Y-100535852D01*
X121906800Y-100521500D01*
X124424877Y-100521500D01*
X124459525Y-100535852D01*
X125022138Y-101098465D01*
X125096361Y-101141318D01*
X125158676Y-101158015D01*
X125179143Y-101163499D01*
X125179144Y-101163500D01*
X125179147Y-101163500D01*
X125264853Y-101163500D01*
X127562110Y-101163500D01*
X127596758Y-101177852D01*
X127611110Y-101212500D01*
X127602852Y-101239723D01*
X127563933Y-101297969D01*
X127552300Y-101356452D01*
X127552300Y-102995948D01*
X127563933Y-103054431D01*
X127579620Y-103077908D01*
X127608247Y-103120752D01*
X127618842Y-103127831D01*
X127674569Y-103165067D01*
X127733052Y-103176700D01*
X127733055Y-103176700D01*
X128472545Y-103176700D01*
X128472548Y-103176700D01*
X128531031Y-103165067D01*
X128597352Y-103120752D01*
X128641667Y-103054431D01*
X128653300Y-102995948D01*
X128653300Y-101356452D01*
X128641667Y-101297969D01*
X128602748Y-101239723D01*
X128595432Y-101202941D01*
X128616267Y-101171758D01*
X128643490Y-101163500D01*
X129762110Y-101163500D01*
X129796758Y-101177852D01*
X129811110Y-101212500D01*
X129802852Y-101239723D01*
X129763933Y-101297969D01*
X129752300Y-101356452D01*
X129752300Y-102995948D01*
X129763933Y-103054431D01*
X129779620Y-103077908D01*
X129808247Y-103120752D01*
X129818842Y-103127831D01*
X129874569Y-103165067D01*
X129933052Y-103176700D01*
X129933055Y-103176700D01*
X130672545Y-103176700D01*
X130672548Y-103176700D01*
X130731031Y-103165067D01*
X130797352Y-103120752D01*
X130812058Y-103098742D01*
X130843240Y-103077908D01*
X130880023Y-103085224D01*
X130893542Y-103098743D01*
X130908247Y-103120752D01*
X130918842Y-103127831D01*
X130974569Y-103165067D01*
X131033052Y-103176700D01*
X131033065Y-103176700D01*
X131033085Y-103176702D01*
X131033096Y-103176708D01*
X131035413Y-103177169D01*
X131035273Y-103177870D01*
X131066166Y-103194369D01*
X131077300Y-103225468D01*
X131077300Y-104735451D01*
X131062948Y-104770099D01*
X130998677Y-104834369D01*
X130998673Y-104834374D01*
X130946567Y-104940959D01*
X130946567Y-104940960D01*
X130936500Y-105010055D01*
X130936500Y-105387544D01*
X130946567Y-105456639D01*
X130946567Y-105456640D01*
X130998673Y-105563225D01*
X130998675Y-105563228D01*
X130998676Y-105563229D01*
X131082571Y-105647124D01*
X131082572Y-105647124D01*
X131082574Y-105647126D01*
X131109895Y-105660482D01*
X131189160Y-105699233D01*
X131242665Y-105707028D01*
X131258256Y-105709300D01*
X131258258Y-105709300D01*
X131750744Y-105709300D01*
X131764753Y-105707258D01*
X131819840Y-105699233D01*
X131860360Y-105679422D01*
X131897791Y-105677099D01*
X131911710Y-105684570D01*
X132005759Y-105756736D01*
X132005761Y-105756736D01*
X132005763Y-105756738D01*
X132130612Y-105808452D01*
X132151838Y-105817244D01*
X132308600Y-105837882D01*
X132465362Y-105817244D01*
X132611441Y-105756736D01*
X132736882Y-105660482D01*
X132833136Y-105535041D01*
X132893644Y-105388962D01*
X132914282Y-105232200D01*
X132893644Y-105075438D01*
X132866563Y-105010058D01*
X132833138Y-104929363D01*
X132833135Y-104929358D01*
X132828932Y-104923881D01*
X132736882Y-104803918D01*
X132729744Y-104798441D01*
X132611441Y-104707664D01*
X132611436Y-104707661D01*
X132465361Y-104647155D01*
X132308600Y-104626518D01*
X132151838Y-104647155D01*
X132005760Y-104707662D01*
X132005755Y-104707665D01*
X131964884Y-104739026D01*
X131928659Y-104748732D01*
X131913535Y-104744172D01*
X131819840Y-104698367D01*
X131770234Y-104691139D01*
X131738018Y-104671941D01*
X131728300Y-104642651D01*
X131728300Y-103225468D01*
X131742652Y-103190820D01*
X131770302Y-103177748D01*
X131770187Y-103177169D01*
X131772500Y-103176708D01*
X131772515Y-103176702D01*
X131772535Y-103176700D01*
X131772548Y-103176700D01*
X131831031Y-103165067D01*
X131897352Y-103120752D01*
X131912058Y-103098742D01*
X131943240Y-103077908D01*
X131980023Y-103085224D01*
X131993542Y-103098743D01*
X132008247Y-103120752D01*
X132018842Y-103127831D01*
X132074569Y-103165067D01*
X132133052Y-103176700D01*
X132133065Y-103176700D01*
X132133085Y-103176702D01*
X132133096Y-103176708D01*
X132135413Y-103177169D01*
X132135273Y-103177870D01*
X132166166Y-103194369D01*
X132177300Y-103225468D01*
X132177300Y-103310256D01*
X132199481Y-103393037D01*
X132199482Y-103393040D01*
X132223824Y-103435200D01*
X132242335Y-103467262D01*
X132681901Y-103906828D01*
X133111748Y-104336674D01*
X133126100Y-104371322D01*
X133126100Y-105610477D01*
X133111748Y-105645125D01*
X132645325Y-106111548D01*
X132610677Y-106125900D01*
X125788744Y-106125900D01*
X125705963Y-106148081D01*
X125705959Y-106148082D01*
X125631737Y-106190935D01*
X125631737Y-106190936D01*
X124126798Y-107695875D01*
X124126797Y-107695875D01*
X124083944Y-107770097D01*
X124082275Y-107776329D01*
X124082274Y-107776328D01*
X124082274Y-107776332D01*
X124061762Y-107852882D01*
X124061762Y-110026095D01*
X124047410Y-110060743D01*
X124012762Y-110075095D01*
X123773812Y-110075095D01*
X123715329Y-110086728D01*
X123649007Y-110131042D01*
X123604693Y-110197364D01*
X123593060Y-110255847D01*
X123593060Y-110255850D01*
X123593060Y-114349949D01*
X123578708Y-114384597D01*
X123544060Y-114398949D01*
X123361762Y-114398949D01*
X123327114Y-114384597D01*
X123312762Y-114349949D01*
X123312762Y-110333385D01*
X123327114Y-110298737D01*
X123331933Y-110294510D01*
X123332001Y-110294457D01*
X123346076Y-110283658D01*
X123442330Y-110158217D01*
X123502838Y-110012138D01*
X123523476Y-109855376D01*
X123502838Y-109698614D01*
X123501141Y-109694518D01*
X123442332Y-109552539D01*
X123442329Y-109552534D01*
X123346076Y-109427094D01*
X123346075Y-109427093D01*
X123220635Y-109330840D01*
X123220630Y-109330837D01*
X123074555Y-109270331D01*
X122917794Y-109249694D01*
X122761032Y-109270331D01*
X122614957Y-109330837D01*
X122614952Y-109330840D01*
X122489512Y-109427093D01*
X122489511Y-109427094D01*
X122393258Y-109552534D01*
X122393255Y-109552539D01*
X122332749Y-109698614D01*
X122312112Y-109855376D01*
X122332749Y-110012137D01*
X122393255Y-110158212D01*
X122393258Y-110158217D01*
X122489511Y-110283657D01*
X122489512Y-110283658D01*
X122614949Y-110379909D01*
X122614949Y-110379910D01*
X122614952Y-110379911D01*
X122614953Y-110379912D01*
X122631513Y-110386771D01*
X122658031Y-110413286D01*
X122661762Y-110432040D01*
X122661762Y-114349949D01*
X122647410Y-114384597D01*
X122612762Y-114398949D01*
X122373812Y-114398949D01*
X122315329Y-114410582D01*
X122249007Y-114454896D01*
X122204693Y-114521218D01*
X122193060Y-114579701D01*
X122193060Y-117762329D01*
X122204693Y-117820812D01*
X122222442Y-117847376D01*
X122249007Y-117887133D01*
X122275572Y-117904882D01*
X122315329Y-117931448D01*
X122373812Y-117943081D01*
X122373815Y-117943081D01*
X123600709Y-117943081D01*
X123600712Y-117943081D01*
X123659195Y-117931448D01*
X123725516Y-117887133D01*
X123769831Y-117820812D01*
X123781464Y-117762329D01*
X123781464Y-114715935D01*
X123795816Y-114681287D01*
X123830464Y-114666935D01*
X125000709Y-114666935D01*
X125000712Y-114666935D01*
X125059195Y-114655302D01*
X125125516Y-114610987D01*
X125169831Y-114544666D01*
X125181464Y-114486183D01*
X125181464Y-110255847D01*
X125169831Y-110197364D01*
X125131892Y-110140585D01*
X125125516Y-110131042D01*
X125073472Y-110096268D01*
X125059195Y-110086728D01*
X125000712Y-110075095D01*
X125000709Y-110075095D01*
X124761762Y-110075095D01*
X124727114Y-110060743D01*
X124712762Y-110026095D01*
X124712762Y-108050861D01*
X124727114Y-108016213D01*
X125952075Y-106791252D01*
X125986723Y-106776900D01*
X132808656Y-106776900D01*
X132808656Y-106776899D01*
X132891439Y-106754718D01*
X132965662Y-106711865D01*
X133647427Y-106030097D01*
X133647432Y-106030094D01*
X133651460Y-106026065D01*
X133651462Y-106026065D01*
X133712065Y-105965462D01*
X133754918Y-105891238D01*
X133769215Y-105837882D01*
X133777101Y-105808453D01*
X133777101Y-105722747D01*
X133777101Y-105719751D01*
X133777100Y-105719733D01*
X133777100Y-104173345D01*
X133771282Y-104151634D01*
X133771282Y-104151633D01*
X133754918Y-104090561D01*
X133754917Y-104090558D01*
X133728671Y-104045100D01*
X133712068Y-104016343D01*
X133712067Y-104016342D01*
X133712065Y-104016338D01*
X133651462Y-103955735D01*
X133649756Y-103954029D01*
X133649745Y-103954019D01*
X132931145Y-103235418D01*
X132916793Y-103200770D01*
X132931145Y-103166122D01*
X132938565Y-103160032D01*
X132986758Y-103127831D01*
X132997351Y-103120753D01*
X132997354Y-103120749D01*
X133041667Y-103054431D01*
X133053300Y-102995948D01*
X133053300Y-101356452D01*
X133041667Y-101297969D01*
X133002748Y-101239723D01*
X132997352Y-101231647D01*
X132954390Y-101202941D01*
X132931031Y-101187333D01*
X132872548Y-101175700D01*
X132133052Y-101175700D01*
X132078400Y-101186571D01*
X132074569Y-101187333D01*
X132008247Y-101231647D01*
X131993542Y-101253656D01*
X131962359Y-101274492D01*
X131925577Y-101267175D01*
X131912058Y-101253656D01*
X131897352Y-101231647D01*
X131854390Y-101202941D01*
X131831031Y-101187333D01*
X131783367Y-101177852D01*
X131772544Y-101175699D01*
X131772495Y-101175695D01*
X131772480Y-101175687D01*
X131770187Y-101175231D01*
X131770325Y-101174535D01*
X131739421Y-101158015D01*
X131728300Y-101126931D01*
X131728300Y-100194144D01*
X131707788Y-100117594D01*
X131707787Y-100117590D01*
X131707787Y-100117591D01*
X131706118Y-100111362D01*
X131706118Y-100111361D01*
X131663265Y-100037138D01*
X129841462Y-98215335D01*
X129767240Y-98172482D01*
X129767237Y-98172481D01*
X129684456Y-98150300D01*
X129684453Y-98150300D01*
X120134053Y-98150300D01*
X120048347Y-98150300D01*
X120048344Y-98150300D01*
X119965562Y-98172481D01*
X119965559Y-98172482D01*
X119891337Y-98215335D01*
X119891337Y-98215336D01*
X119196836Y-98909837D01*
X119196835Y-98909837D01*
X119153982Y-98984059D01*
X119152313Y-98990291D01*
X119152312Y-98990290D01*
X119152312Y-98990294D01*
X119131800Y-99066844D01*
X119131800Y-99211067D01*
X119117448Y-99245715D01*
X119104324Y-99255087D01*
X119100819Y-99256800D01*
X119100815Y-99256803D01*
X119018103Y-99339515D01*
X119018101Y-99339519D01*
X118966728Y-99444603D01*
X118966727Y-99444605D01*
X118958694Y-99499744D01*
X118956800Y-99512740D01*
X116050060Y-99512740D01*
X116050060Y-90527983D01*
X116217900Y-90527983D01*
X116217900Y-91041416D01*
X116228108Y-91111485D01*
X116228108Y-91111486D01*
X116280949Y-91219572D01*
X116280950Y-91219574D01*
X116280951Y-91219575D01*
X116366025Y-91304649D01*
X116366026Y-91304649D01*
X116366028Y-91304651D01*
X116383472Y-91313179D01*
X116408296Y-91341290D01*
X116405972Y-91378721D01*
X116383472Y-91401221D01*
X116366028Y-91409748D01*
X116366023Y-91409752D01*
X116280952Y-91494823D01*
X116280950Y-91494827D01*
X116228109Y-91602913D01*
X116228109Y-91602914D01*
X116217900Y-91672983D01*
X116217900Y-92186416D01*
X116228108Y-92256485D01*
X116228108Y-92256486D01*
X116280949Y-92364572D01*
X116280950Y-92364574D01*
X116280951Y-92364575D01*
X116366025Y-92449649D01*
X116366028Y-92449650D01*
X116366029Y-92449651D01*
X116410820Y-92471548D01*
X116435645Y-92499658D01*
X116438300Y-92515569D01*
X116438300Y-96105656D01*
X116460481Y-96188437D01*
X116460482Y-96188440D01*
X116503335Y-96262662D01*
X117681538Y-97440865D01*
X117755761Y-97483718D01*
X117821053Y-97501212D01*
X117838543Y-97505899D01*
X117838544Y-97505900D01*
X117838547Y-97505900D01*
X117924253Y-97505900D01*
X132305877Y-97505900D01*
X132340525Y-97520252D01*
X134483348Y-99663075D01*
X134497700Y-99697723D01*
X134497700Y-101126700D01*
X134483348Y-101161348D01*
X134448700Y-101175700D01*
X134333052Y-101175700D01*
X134278400Y-101186571D01*
X134274569Y-101187333D01*
X134208247Y-101231647D01*
X134163933Y-101297969D01*
X134152300Y-101356452D01*
X134152300Y-102995948D01*
X134163933Y-103054431D01*
X134179620Y-103077908D01*
X134208247Y-103120752D01*
X134218842Y-103127831D01*
X134274569Y-103165067D01*
X134333052Y-103176700D01*
X134474100Y-103176700D01*
X134508748Y-103191052D01*
X134523100Y-103225700D01*
X134523100Y-105839077D01*
X134508748Y-105873725D01*
X133254925Y-107127548D01*
X133220277Y-107141900D01*
X131097344Y-107141900D01*
X131014562Y-107164081D01*
X131014558Y-107164082D01*
X130977450Y-107185508D01*
X130940343Y-107206931D01*
X130940334Y-107206938D01*
X129926798Y-108220475D01*
X129926797Y-108220475D01*
X129883944Y-108294697D01*
X129882275Y-108300929D01*
X129882274Y-108300928D01*
X129882274Y-108300932D01*
X129861762Y-108377482D01*
X129861762Y-110026095D01*
X129847410Y-110060743D01*
X129812762Y-110075095D01*
X129573812Y-110075095D01*
X129515329Y-110086728D01*
X129449007Y-110131042D01*
X129404693Y-110197364D01*
X129393060Y-110255847D01*
X129393060Y-110255850D01*
X129393060Y-114376095D01*
X129378708Y-114410743D01*
X129344060Y-114425095D01*
X128180464Y-114425095D01*
X128145816Y-114410743D01*
X128131464Y-114376095D01*
X128131464Y-110255850D01*
X128131464Y-110255847D01*
X128119831Y-110197364D01*
X128081892Y-110140585D01*
X128075516Y-110131042D01*
X128023472Y-110096268D01*
X128009195Y-110086728D01*
X127950712Y-110075095D01*
X127950709Y-110075095D01*
X127711762Y-110075095D01*
X127677114Y-110060743D01*
X127662762Y-110026095D01*
X127662762Y-109294112D01*
X127677114Y-109259464D01*
X127681917Y-109255250D01*
X127765544Y-109191082D01*
X127861798Y-109065641D01*
X127922306Y-108919562D01*
X127942944Y-108762800D01*
X127922306Y-108606038D01*
X127901233Y-108555164D01*
X127861800Y-108459963D01*
X127861797Y-108459958D01*
X127765544Y-108334518D01*
X127765543Y-108334517D01*
X127640103Y-108238264D01*
X127640098Y-108238261D01*
X127494023Y-108177755D01*
X127337262Y-108157118D01*
X127180500Y-108177755D01*
X127034425Y-108238261D01*
X127034420Y-108238264D01*
X126908980Y-108334517D01*
X126908979Y-108334518D01*
X126812726Y-108459958D01*
X126812723Y-108459963D01*
X126752217Y-108606038D01*
X126731580Y-108762800D01*
X126752217Y-108919561D01*
X126812723Y-109065636D01*
X126812726Y-109065641D01*
X126908980Y-109191082D01*
X126992592Y-109255239D01*
X127011343Y-109287716D01*
X127011762Y-109294112D01*
X127011762Y-110026095D01*
X126997410Y-110060743D01*
X126962762Y-110075095D01*
X126723812Y-110075095D01*
X126665329Y-110086728D01*
X126599007Y-110131042D01*
X126554693Y-110197364D01*
X126543060Y-110255847D01*
X126543060Y-114486183D01*
X126554693Y-114544666D01*
X126572442Y-114571230D01*
X126599007Y-114610987D01*
X126625572Y-114628736D01*
X126665329Y-114655302D01*
X126723812Y-114666935D01*
X126723815Y-114666935D01*
X127944060Y-114666935D01*
X127978708Y-114681287D01*
X127993060Y-114715935D01*
X127993060Y-118836183D01*
X128004693Y-118894666D01*
X128022442Y-118921230D01*
X128049007Y-118960987D01*
X128075572Y-118978736D01*
X128115329Y-119005302D01*
X128173812Y-119016935D01*
X128173815Y-119016935D01*
X129400709Y-119016935D01*
X129400712Y-119016935D01*
X129459195Y-119005302D01*
X129525516Y-118960987D01*
X129569831Y-118894666D01*
X129581464Y-118836183D01*
X129581464Y-114715935D01*
X129595816Y-114681287D01*
X129630464Y-114666935D01*
X130800711Y-114666935D01*
X130800712Y-114666935D01*
X130834500Y-114660214D01*
X130871283Y-114667530D01*
X130892118Y-114698712D01*
X130893060Y-114708272D01*
X130893060Y-118836183D01*
X130904693Y-118894666D01*
X130922442Y-118921230D01*
X130949007Y-118960987D01*
X130975572Y-118978736D01*
X131015329Y-119005302D01*
X131073812Y-119016935D01*
X131073815Y-119016935D01*
X132300709Y-119016935D01*
X132300712Y-119016935D01*
X132359195Y-119005302D01*
X132425516Y-118960987D01*
X132469831Y-118894666D01*
X132481464Y-118836183D01*
X132481464Y-114715935D01*
X132495816Y-114681287D01*
X132530464Y-114666935D01*
X133744060Y-114666935D01*
X133778708Y-114681287D01*
X133793060Y-114715935D01*
X133793060Y-118836183D01*
X133804693Y-118894666D01*
X133822442Y-118921230D01*
X133849007Y-118960987D01*
X133875572Y-118978736D01*
X133915329Y-119005302D01*
X133973812Y-119016935D01*
X133973815Y-119016935D01*
X135200709Y-119016935D01*
X135200712Y-119016935D01*
X135259195Y-119005302D01*
X135325516Y-118960987D01*
X135369831Y-118894666D01*
X135381464Y-118836183D01*
X135381464Y-114715935D01*
X135395816Y-114681287D01*
X135430464Y-114666935D01*
X136600709Y-114666935D01*
X136600712Y-114666935D01*
X136659195Y-114655302D01*
X136725516Y-114610987D01*
X136769831Y-114544666D01*
X136781464Y-114486183D01*
X136781464Y-110265389D01*
X138143060Y-110265389D01*
X138143060Y-114076641D01*
X138154693Y-114135124D01*
X138172442Y-114161688D01*
X138199007Y-114201445D01*
X138225572Y-114219194D01*
X138265329Y-114245760D01*
X138323812Y-114257393D01*
X138323815Y-114257393D01*
X139550709Y-114257393D01*
X139550712Y-114257393D01*
X139609195Y-114245760D01*
X139675516Y-114201445D01*
X139719831Y-114135124D01*
X139731464Y-114076641D01*
X139731464Y-110265389D01*
X139719831Y-110206906D01*
X139687294Y-110158212D01*
X139675516Y-110140584D01*
X139635759Y-110114019D01*
X139609195Y-110096270D01*
X139550712Y-110084637D01*
X139550710Y-110084637D01*
X139550700Y-110084635D01*
X139548416Y-110084410D01*
X139515344Y-110066726D01*
X139504464Y-110030836D01*
X139507958Y-110016894D01*
X139509928Y-110012138D01*
X139511625Y-110008042D01*
X139532263Y-109851280D01*
X139511625Y-109694518D01*
X139490913Y-109644515D01*
X139451119Y-109548443D01*
X139451116Y-109548438D01*
X139354863Y-109422998D01*
X139354862Y-109422997D01*
X139229422Y-109326744D01*
X139229417Y-109326741D01*
X139083342Y-109266235D01*
X138926581Y-109245598D01*
X138769819Y-109266235D01*
X138623744Y-109326741D01*
X138623739Y-109326744D01*
X138498299Y-109422997D01*
X138498298Y-109422998D01*
X138402045Y-109548438D01*
X138402042Y-109548443D01*
X138341536Y-109694518D01*
X138320899Y-109851280D01*
X138341536Y-110008041D01*
X138346651Y-110020390D01*
X138346649Y-110057893D01*
X138320129Y-110084410D01*
X138310939Y-110087197D01*
X138265331Y-110096268D01*
X138199007Y-110140584D01*
X138161069Y-110197364D01*
X138154693Y-110206906D01*
X138143060Y-110265389D01*
X136781464Y-110265389D01*
X136781464Y-110255847D01*
X136769831Y-110197364D01*
X136731892Y-110140585D01*
X136725516Y-110131042D01*
X136673472Y-110096268D01*
X136659195Y-110086728D01*
X136600712Y-110075095D01*
X135373812Y-110075095D01*
X135315329Y-110086728D01*
X135249007Y-110131042D01*
X135204693Y-110197364D01*
X135193060Y-110255847D01*
X135193060Y-110255850D01*
X135193060Y-114376095D01*
X135178708Y-114410743D01*
X135144060Y-114425095D01*
X134961762Y-114425095D01*
X134927114Y-114410743D01*
X134912762Y-114376095D01*
X134912762Y-109717882D01*
X134896501Y-109657197D01*
X134894831Y-109644515D01*
X134894831Y-109192512D01*
X134909183Y-109157864D01*
X134913986Y-109153650D01*
X134997613Y-109089482D01*
X135093867Y-108964041D01*
X135154375Y-108817962D01*
X135175013Y-108661200D01*
X135154375Y-108504438D01*
X135104956Y-108385129D01*
X135093869Y-108358363D01*
X135093866Y-108358358D01*
X135049799Y-108300929D01*
X134997613Y-108232918D01*
X134872172Y-108136664D01*
X134872167Y-108136661D01*
X134726092Y-108076155D01*
X134569331Y-108055518D01*
X134412569Y-108076155D01*
X134266494Y-108136661D01*
X134266489Y-108136664D01*
X134141049Y-108232917D01*
X134141048Y-108232918D01*
X134044795Y-108358358D01*
X134044792Y-108358363D01*
X133984286Y-108504438D01*
X133963649Y-108661200D01*
X133984286Y-108817961D01*
X134044792Y-108964036D01*
X134044795Y-108964041D01*
X134141049Y-109089482D01*
X134224661Y-109153639D01*
X134243412Y-109186116D01*
X134243831Y-109192512D01*
X134243831Y-109785661D01*
X134260092Y-109846346D01*
X134261762Y-109859029D01*
X134261762Y-114376095D01*
X134247410Y-114410743D01*
X134212762Y-114425095D01*
X133980464Y-114425095D01*
X133945816Y-114410743D01*
X133931464Y-114376095D01*
X133931464Y-110255850D01*
X133931464Y-110255847D01*
X133919831Y-110197364D01*
X133881892Y-110140585D01*
X133875516Y-110131042D01*
X133823472Y-110096268D01*
X133809195Y-110086728D01*
X133750712Y-110075095D01*
X133750709Y-110075095D01*
X133511762Y-110075095D01*
X133477114Y-110060743D01*
X133462762Y-110026095D01*
X133462762Y-109219283D01*
X133477114Y-109184635D01*
X133481917Y-109180421D01*
X133565544Y-109116253D01*
X133661798Y-108990812D01*
X133722306Y-108844733D01*
X133742944Y-108687971D01*
X133722306Y-108531209D01*
X133661798Y-108385130D01*
X133565544Y-108259689D01*
X133537622Y-108238264D01*
X133440103Y-108163435D01*
X133440098Y-108163432D01*
X133294023Y-108102926D01*
X133137262Y-108082289D01*
X132980500Y-108102926D01*
X132834425Y-108163432D01*
X132834420Y-108163435D01*
X132708980Y-108259688D01*
X132708979Y-108259689D01*
X132612726Y-108385129D01*
X132612723Y-108385134D01*
X132552217Y-108531209D01*
X132531580Y-108687971D01*
X132552217Y-108844732D01*
X132612723Y-108990807D01*
X132612726Y-108990812D01*
X132708980Y-109116253D01*
X132792592Y-109180410D01*
X132811343Y-109212887D01*
X132811762Y-109219283D01*
X132811762Y-110026095D01*
X132797410Y-110060743D01*
X132762762Y-110075095D01*
X132523812Y-110075095D01*
X132465329Y-110086728D01*
X132399007Y-110131042D01*
X132354693Y-110197364D01*
X132343060Y-110255847D01*
X132343060Y-110255850D01*
X132343060Y-114376095D01*
X132328708Y-114410743D01*
X132294060Y-114425095D01*
X131073812Y-114425095D01*
X131040023Y-114431816D01*
X131003240Y-114424499D01*
X130982405Y-114393316D01*
X130981464Y-114383757D01*
X130981464Y-110255850D01*
X130981464Y-110255847D01*
X130969831Y-110197364D01*
X130931892Y-110140585D01*
X130925516Y-110131042D01*
X130873472Y-110096268D01*
X130859195Y-110086728D01*
X130800712Y-110075095D01*
X130800709Y-110075095D01*
X130561762Y-110075095D01*
X130527114Y-110060743D01*
X130512762Y-110026095D01*
X130512762Y-108575460D01*
X130527114Y-108540812D01*
X131260674Y-107807252D01*
X131295322Y-107792900D01*
X133418256Y-107792900D01*
X133418256Y-107792899D01*
X133501039Y-107770718D01*
X133575262Y-107727865D01*
X135109065Y-106194062D01*
X135151917Y-106119839D01*
X135151918Y-106119838D01*
X135154140Y-106111548D01*
X135174099Y-106037056D01*
X135174100Y-106037056D01*
X135174100Y-103162479D01*
X135188452Y-103127831D01*
X135195879Y-103121736D01*
X135197352Y-103120752D01*
X135212058Y-103098742D01*
X135243240Y-103077908D01*
X135280023Y-103085224D01*
X135293542Y-103098743D01*
X135308247Y-103120752D01*
X135318842Y-103127831D01*
X135374569Y-103165067D01*
X135433052Y-103176700D01*
X135433055Y-103176700D01*
X136172545Y-103176700D01*
X136172548Y-103176700D01*
X136231031Y-103165067D01*
X136297352Y-103120752D01*
X136312058Y-103098742D01*
X136343240Y-103077908D01*
X136380023Y-103085224D01*
X136393542Y-103098743D01*
X136408247Y-103120752D01*
X136418842Y-103127831D01*
X136474569Y-103165067D01*
X136533052Y-103176700D01*
X136533055Y-103176700D01*
X137272545Y-103176700D01*
X137272548Y-103176700D01*
X137331031Y-103165067D01*
X137397352Y-103120752D01*
X137441667Y-103054431D01*
X137453300Y-102995948D01*
X137453300Y-101356452D01*
X137441667Y-101297969D01*
X137402748Y-101239723D01*
X137397352Y-101231647D01*
X137354390Y-101202941D01*
X137331031Y-101187333D01*
X137272548Y-101175700D01*
X136533052Y-101175700D01*
X136478400Y-101186571D01*
X136474569Y-101187333D01*
X136408247Y-101231647D01*
X136393542Y-101253656D01*
X136362359Y-101274492D01*
X136325577Y-101267175D01*
X136312058Y-101253656D01*
X136297352Y-101231647D01*
X136254390Y-101202941D01*
X136231031Y-101187333D01*
X136172548Y-101175700D01*
X135433052Y-101175700D01*
X135378400Y-101186571D01*
X135374569Y-101187333D01*
X135308247Y-101231647D01*
X135293542Y-101253656D01*
X135262359Y-101274492D01*
X135225577Y-101267175D01*
X135212058Y-101253656D01*
X135197352Y-101231647D01*
X135170477Y-101213690D01*
X135149641Y-101182507D01*
X135148700Y-101172948D01*
X135148700Y-99499744D01*
X135148699Y-99499743D01*
X135144012Y-99482253D01*
X135126518Y-99416961D01*
X135083665Y-99342738D01*
X133734127Y-97993200D01*
X142362015Y-97993200D01*
X142382652Y-98149961D01*
X142443158Y-98296036D01*
X142443161Y-98296041D01*
X142539415Y-98421482D01*
X142664856Y-98517736D01*
X142664858Y-98517736D01*
X142664860Y-98517738D01*
X142810935Y-98578244D01*
X142967697Y-98598882D01*
X143124459Y-98578244D01*
X143270538Y-98517736D01*
X143395979Y-98421482D01*
X143492233Y-98296041D01*
X143552741Y-98149962D01*
X143573379Y-97993200D01*
X143556620Y-97865908D01*
X143566326Y-97829686D01*
X143570545Y-97824875D01*
X145523065Y-95872357D01*
X145565918Y-95798134D01*
X145588099Y-95715351D01*
X145588100Y-95715351D01*
X145588100Y-92503152D01*
X145602452Y-92468504D01*
X145615579Y-92459131D01*
X145634975Y-92449649D01*
X145720049Y-92364575D01*
X145772891Y-92256486D01*
X145783100Y-92186415D01*
X145783099Y-91672986D01*
X145772891Y-91602914D01*
X145772582Y-91602282D01*
X145720050Y-91494827D01*
X145720049Y-91494826D01*
X145720049Y-91494825D01*
X145634975Y-91409751D01*
X145634973Y-91409750D01*
X145634970Y-91409748D01*
X145617527Y-91401221D01*
X145592702Y-91373111D01*
X145595026Y-91335680D01*
X145617527Y-91313179D01*
X145621474Y-91311249D01*
X145634975Y-91304649D01*
X145720049Y-91219575D01*
X145772891Y-91111486D01*
X145783100Y-91041415D01*
X145783099Y-90527986D01*
X145772891Y-90457914D01*
X145766503Y-90444848D01*
X145720050Y-90349827D01*
X145720049Y-90349826D01*
X145720049Y-90349825D01*
X145634975Y-90264751D01*
X145526886Y-90211909D01*
X145503529Y-90208506D01*
X145456817Y-90201700D01*
X145068383Y-90201700D01*
X144998314Y-90211908D01*
X144998313Y-90211908D01*
X144890227Y-90264749D01*
X144890223Y-90264752D01*
X144805152Y-90349823D01*
X144805148Y-90349828D01*
X144777336Y-90406721D01*
X144749225Y-90431545D01*
X144733315Y-90434200D01*
X144521885Y-90434200D01*
X144487237Y-90419848D01*
X144477864Y-90406721D01*
X144450051Y-90349828D01*
X144450047Y-90349823D01*
X144364976Y-90264752D01*
X144364975Y-90264751D01*
X144256886Y-90211909D01*
X144233529Y-90208506D01*
X144186817Y-90201700D01*
X143798383Y-90201700D01*
X143728314Y-90211908D01*
X143728313Y-90211908D01*
X143620227Y-90264749D01*
X143620223Y-90264752D01*
X143535152Y-90349823D01*
X143535150Y-90349827D01*
X143482309Y-90457913D01*
X143482309Y-90457914D01*
X143472100Y-90527983D01*
X143472100Y-90991416D01*
X143482308Y-91061485D01*
X143482308Y-91061486D01*
X143535149Y-91169572D01*
X143535150Y-91169574D01*
X143535151Y-91169575D01*
X143620225Y-91254649D01*
X143728314Y-91307491D01*
X143798385Y-91317700D01*
X144186814Y-91317699D01*
X144186816Y-91317699D01*
X144233528Y-91310893D01*
X144256886Y-91307491D01*
X144364975Y-91254649D01*
X144450049Y-91169575D01*
X144477864Y-91112678D01*
X144505975Y-91087855D01*
X144521885Y-91085200D01*
X144708871Y-91085200D01*
X144743519Y-91099552D01*
X144752892Y-91112679D01*
X144805149Y-91219572D01*
X144805150Y-91219574D01*
X144805151Y-91219575D01*
X144890225Y-91304649D01*
X144890226Y-91304649D01*
X144890228Y-91304651D01*
X144907672Y-91313179D01*
X144932496Y-91341290D01*
X144930172Y-91378721D01*
X144907672Y-91401221D01*
X144890228Y-91409748D01*
X144890223Y-91409752D01*
X144805152Y-91494823D01*
X144805150Y-91494827D01*
X144752309Y-91602913D01*
X144752309Y-91602914D01*
X144742100Y-91672983D01*
X144742100Y-92186416D01*
X144752308Y-92256485D01*
X144752308Y-92256486D01*
X144805149Y-92364572D01*
X144805150Y-92364574D01*
X144805151Y-92364575D01*
X144890225Y-92449649D01*
X144909621Y-92459131D01*
X144934445Y-92487242D01*
X144937100Y-92503152D01*
X144937100Y-95517371D01*
X144922748Y-95552019D01*
X143090427Y-97384339D01*
X143055779Y-97398691D01*
X143049383Y-97398272D01*
X142967697Y-97387518D01*
X142810935Y-97408155D01*
X142664860Y-97468661D01*
X142664855Y-97468664D01*
X142539415Y-97564917D01*
X142539414Y-97564918D01*
X142443161Y-97690358D01*
X142443158Y-97690363D01*
X142382652Y-97836438D01*
X142362015Y-97993200D01*
X133734127Y-97993200D01*
X132660862Y-96919935D01*
X132586640Y-96877082D01*
X132586637Y-96877081D01*
X132503856Y-96854900D01*
X132503853Y-96854900D01*
X118036523Y-96854900D01*
X118001875Y-96840548D01*
X117103652Y-95942325D01*
X117089300Y-95907677D01*
X117089300Y-92490204D01*
X117103652Y-92455556D01*
X117109826Y-92450326D01*
X117110768Y-92449652D01*
X117110775Y-92449649D01*
X117195849Y-92364575D01*
X117248691Y-92256486D01*
X117258900Y-92186415D01*
X117258899Y-91672986D01*
X117248691Y-91602914D01*
X117248382Y-91602282D01*
X117248380Y-91602278D01*
X126552300Y-91602278D01*
X126552300Y-91750121D01*
X126581140Y-91895106D01*
X126581142Y-91895115D01*
X126637714Y-92031691D01*
X126637716Y-92031695D01*
X126719849Y-92154616D01*
X126824384Y-92259151D01*
X126947305Y-92341284D01*
X127003527Y-92364572D01*
X127083884Y-92397857D01*
X127083885Y-92397857D01*
X127083887Y-92397858D01*
X127228882Y-92426700D01*
X127376718Y-92426700D01*
X127521713Y-92397858D01*
X127658295Y-92341284D01*
X127781216Y-92259151D01*
X127885751Y-92154616D01*
X127967884Y-92031695D01*
X128024458Y-91895113D01*
X128053300Y-91750118D01*
X128053300Y-91602282D01*
X128053299Y-91602278D01*
X134552300Y-91602278D01*
X134552300Y-91750121D01*
X134581140Y-91895106D01*
X134581142Y-91895115D01*
X134637714Y-92031691D01*
X134637716Y-92031695D01*
X134719849Y-92154616D01*
X134824384Y-92259151D01*
X134947305Y-92341284D01*
X135003527Y-92364572D01*
X135083884Y-92397857D01*
X135083885Y-92397857D01*
X135083887Y-92397858D01*
X135228882Y-92426700D01*
X135376718Y-92426700D01*
X135521713Y-92397858D01*
X135658295Y-92341284D01*
X135781216Y-92259151D01*
X135885751Y-92154616D01*
X135967884Y-92031695D01*
X136024458Y-91895113D01*
X136053300Y-91750118D01*
X136053300Y-91602282D01*
X136024458Y-91457287D01*
X135967884Y-91320705D01*
X135885751Y-91197784D01*
X135781216Y-91093249D01*
X135773143Y-91087855D01*
X135703642Y-91041416D01*
X135658295Y-91011116D01*
X135658292Y-91011114D01*
X135658291Y-91011114D01*
X135521715Y-90954542D01*
X135521706Y-90954540D01*
X135376721Y-90925700D01*
X135376718Y-90925700D01*
X135228882Y-90925700D01*
X135228878Y-90925700D01*
X135083893Y-90954540D01*
X135083884Y-90954542D01*
X134947308Y-91011114D01*
X134824384Y-91093248D01*
X134719848Y-91197784D01*
X134637714Y-91320708D01*
X134581142Y-91457284D01*
X134581140Y-91457293D01*
X134552300Y-91602278D01*
X128053299Y-91602278D01*
X128024458Y-91457287D01*
X127967884Y-91320705D01*
X127885751Y-91197784D01*
X127781216Y-91093249D01*
X127773143Y-91087855D01*
X127703642Y-91041416D01*
X127658295Y-91011116D01*
X127658292Y-91011114D01*
X127658291Y-91011114D01*
X127521715Y-90954542D01*
X127521706Y-90954540D01*
X127376721Y-90925700D01*
X127376718Y-90925700D01*
X127228882Y-90925700D01*
X127228878Y-90925700D01*
X127083893Y-90954540D01*
X127083884Y-90954542D01*
X126947308Y-91011114D01*
X126824384Y-91093248D01*
X126719848Y-91197784D01*
X126637714Y-91320708D01*
X126581142Y-91457284D01*
X126581140Y-91457293D01*
X126552300Y-91602278D01*
X117248380Y-91602278D01*
X117195850Y-91494827D01*
X117195849Y-91494826D01*
X117195849Y-91494825D01*
X117110775Y-91409751D01*
X117110773Y-91409750D01*
X117110770Y-91409748D01*
X117093327Y-91401221D01*
X117068502Y-91373111D01*
X117070826Y-91335680D01*
X117093327Y-91313179D01*
X117097274Y-91311249D01*
X117110775Y-91304649D01*
X117195849Y-91219575D01*
X117235886Y-91137679D01*
X117263997Y-91112855D01*
X117279907Y-91110200D01*
X117364337Y-91110200D01*
X117398985Y-91124552D01*
X117408357Y-91137678D01*
X117423951Y-91169575D01*
X117509025Y-91254649D01*
X117617114Y-91307491D01*
X117687185Y-91317700D01*
X118075614Y-91317699D01*
X118075616Y-91317699D01*
X118122328Y-91310893D01*
X118145686Y-91307491D01*
X118253775Y-91254649D01*
X118338849Y-91169575D01*
X118391691Y-91061486D01*
X118401900Y-90991415D01*
X118401899Y-90527986D01*
X118391691Y-90457914D01*
X118385303Y-90444848D01*
X118338850Y-90349827D01*
X118338849Y-90349826D01*
X118338849Y-90349825D01*
X118253775Y-90264751D01*
X118145686Y-90211909D01*
X118122329Y-90208506D01*
X118075617Y-90201700D01*
X117687183Y-90201700D01*
X117617114Y-90211908D01*
X117617113Y-90211908D01*
X117509027Y-90264749D01*
X117509023Y-90264752D01*
X117423952Y-90349823D01*
X117423949Y-90349827D01*
X117383914Y-90431721D01*
X117355803Y-90456545D01*
X117339893Y-90459200D01*
X117279907Y-90459200D01*
X117245259Y-90444848D01*
X117235886Y-90431721D01*
X117195850Y-90349827D01*
X117195849Y-90349826D01*
X117195849Y-90349825D01*
X117110775Y-90264751D01*
X117002686Y-90211909D01*
X116979329Y-90208506D01*
X116932617Y-90201700D01*
X116544183Y-90201700D01*
X116474114Y-90211908D01*
X116474113Y-90211908D01*
X116366027Y-90264749D01*
X116366023Y-90264752D01*
X116280952Y-90349823D01*
X116280950Y-90349827D01*
X116228109Y-90457913D01*
X116228109Y-90457914D01*
X116217900Y-90527983D01*
X116050060Y-90527983D01*
X116050060Y-89323180D01*
X116064412Y-89288532D01*
X116099060Y-89274180D01*
X146001000Y-89274180D01*
X146035648Y-89288532D01*
G37*
G04 #@! TD.AperFunction*
M02*
